<?xml version="1.0" encoding="UTF-8" standalone="no"?>
<!-- Created with Inkscape (http://www.inkscape.org/) -->

<svg
   xmlns:osb="http://www.openswatchbook.org/uri/2009/osb"
   xmlns:dc="http://purl.org/dc/elements/1.1/"
   xmlns:cc="http://creativecommons.org/ns#"
   xmlns:rdf="http://www.w3.org/1999/02/22-rdf-syntax-ns#"
   xmlns:svg="http://www.w3.org/2000/svg"
   xmlns="http://www.w3.org/2000/svg"
   xmlns:xlink="http://www.w3.org/1999/xlink"
   xmlns:sodipodi="http://sodipodi.sourceforge.net/DTD/sodipodi-0.dtd"
   xmlns:inkscape="http://www.inkscape.org/namespaces/inkscape"
   width="98"
   height="61"
   viewBox="0 0 25.929166 16.139584"
   version="1.1"
   id="svg3719"
   inkscape:version="0.92.4 (5da689c313, 2019-01-14)"
   sodipodi:docname="logo.svg">
  <defs
     id="defs3713">
    <linearGradient
       id="linearGradient6022"
       osb:paint="solid">
      <stop
         style="stop-color:#000000;stop-opacity:1;"
         offset="0"
         id="stop6020" />
    </linearGradient>
    <linearGradient
       id="linearGradient4558"
       osb:paint="solid">
      <stop
         style="stop-color:#000000;stop-opacity:1;"
         offset="0"
         id="stop4556" />
    </linearGradient>
    <linearGradient
       id="linearGradient4552"
       osb:paint="solid">
      <stop
         style="stop-color:#000000;stop-opacity:1;"
         offset="0"
         id="stop4550" />
    </linearGradient>
    <linearGradient
       inkscape:collect="always"
       xlink:href="#linearGradient4552"
       id="linearGradient4554"
       x1="12.255732"
       y1="54.92796"
       x2="97.992429"
       y2="54.92796"
       gradientUnits="userSpaceOnUse" />
  </defs>
  <sodipodi:namedview
     id="base"
     pagecolor="#ffffff"
     bordercolor="#666666"
     borderopacity="1.0"
     inkscape:pageopacity="0.0"
     inkscape:pageshadow="2"
     inkscape:zoom="11.313708"
     inkscape:cx="46.004543"
     inkscape:cy="31.095665"
     inkscape:document-units="mm"
     inkscape:current-layer="layer1"
     showgrid="true"
     inkscape:window-width="1920"
     inkscape:window-height="1017"
     inkscape:window-x="-8"
     inkscape:window-y="-8"
     inkscape:window-maximized="1"
     units="px"
     inkscape:snap-bbox="false">
    <inkscape:grid
       type="xygrid"
       id="grid16" />
  </sodipodi:namedview>
  <metadata
     id="metadata3716">
    <rdf:RDF>
      <cc:Work
         rdf:about="">
        <dc:format>image/svg+xml</dc:format>
        <dc:type
           rdf:resource="http://purl.org/dc/dcmitype/StillImage" />
        <dc:title />
      </cc:Work>
    </rdf:RDF>
  </metadata>
  <g
     inkscape:label="Layer 1"
     inkscape:groupmode="layer"
     id="layer1"
     transform="translate(0,-280.86039)">
    <rect
       id="rect3723"
       width="1.3739324"
       height="0"
       x="-17.015537"
       y="11.061011"
       style="stroke-width:0"
       transform="scale(-1,1)" />
    <rect
       id="rect3721"
       width="3.2411458"
       height="16.139593"
       x="-8.6278734e-16"
       y="280.86038"
       style="stroke-width:3.2345252" />
    <rect
       id="rect3725"
       width="22.688023"
       height="3.2279184"
       x="3.2411489"
       y="293.772"
       style="stroke-width:125.21376038" />
    <rect
       id="rect3721-1"
       width="3.2411458"
       height="12.911674"
       x="9.7234459"
       y="280.86038"
       style="stroke-width:2.89304733" />
    <rect
       id="rect3721-1-4"
       width="3.2411458"
       height="12.911674"
       x="16.205721"
       y="280.86038"
       style="stroke-width:2.89304733" />
    <rect
       id="rect3721-1-4-7"
       width="3.2411458"
       height="6.4558368"
       x="22.688021"
       y="287.31631"
       style="stroke-width:2.04569364" />
    <rect
       id="rect3721-1-4-7-9"
       width="3.2411458"
       height="3.2279184"
       x="12.964572"
       y="287.31631"
       style="stroke-width:1.44652379;fill-opacity:1;fill:#000000" />
    <rect
       id="rect3721-1-4-7-9-2"
       width="3.2411458"
       height="3.2279184"
       x="12.964583"
       y="280.86038"
       style="stroke-width:1.44652379;fill:#000000;fill-opacity:1;stroke:none;stroke-opacity:1" />
    <rect
       id="rect3725-0"
       width="6.4822917"
       height="3.2279184"
       x="3.2411489"
       y="287.31631"
       style="stroke-width:66.92956543" />
    <path
       style="stroke-width:0.08838835"
       d="M 0.0581398,30.532777 V 0.08299064 H 6.1127416 12.167343 V 30.532777 60.982562 H 6.1127416 0.0581398 Z"
       id="path17"
       inkscape:connector-curvature="0"
       transform="matrix(0.26458333,0,0,0.26458333,0,280.86039)" />
    <path
       style="stroke-width:0.08838835"
       d="m 12.255732,30.532777 v -6.054602 h 12.241786 12.241786 v 6.054602 6.054601 H 24.497518 12.255732 Z"
       id="path19"
       inkscape:connector-curvature="0"
       transform="matrix(0.26458333,0,0,0.26458333,0,280.86039)" />
    <path
       style="stroke-width:0.08838835;fill:url(#linearGradient4554);fill-opacity:1"
       d="m 12.255732,54.927961 v -6.054602 h 42.868349 42.868348 v 6.054602 6.054601 H 55.124081 12.255732 Z"
       id="path21"
       inkscape:connector-curvature="0"
       transform="matrix(0.26458333,0,0,0.26458333,0,280.86039)" />
    <path
       style="stroke-width:0.08838835"
       d="m 12.255732,30.532777 v -6.054602 h 12.241786 12.241786 v 6.054602 6.054601 H 24.497518 12.255732 Z"
       id="path4534"
       inkscape:connector-curvature="0"
       transform="matrix(0.26458333,0,0,0.26458333,0,280.86039)" />
    <path
       style="stroke-width:0.08838835"
       d="m 12.211033,30.532777 c 0,-16.77169 0.01017,-23.646008 0.0226,-15.276264 0.01243,8.369745 0.01243,22.092036 0,30.49398 -0.01243,8.401945 -0.0226,1.553973 -0.0226,-15.217716 z"
       id="path4536"
       inkscape:connector-curvature="0"
       transform="matrix(0.26458333,0,0,0.26458333,0,280.86039)" />
    <path
       style="stroke-width:0.08838835"
       d="M 0.0581398,30.532777 V 0.08299064 H 6.1127416 12.167343 V 30.532777 60.982562 H 6.1127416 0.0581398 Z m 12.1975922,0 v -6.054602 h 12.241786 12.241786 v 6.054602 6.054601 H 24.497518 12.255732 Z"
       id="path4538"
       inkscape:connector-curvature="0"
       transform="matrix(0.26458333,0,0,0.26458333,0,280.86039)" />
    <path
       style="stroke-width:0.08838835"
       d="m 12.255732,30.532777 v -6.054602 h 12.241786 12.241786 v 6.054602 6.054601 H 24.497518 12.255732 Z"
       id="path4540"
       inkscape:connector-curvature="0"
       transform="matrix(0.26458333,0,0,0.26458333,0,280.86039)" />
    <path
       style="stroke-width:0.08838835"
       d="m 12.253349,54.927961 c 9e-6,-3.354338 0.01101,-4.713713 0.02445,-3.020834 0.01344,1.69288 0.01343,4.437338 -1.6e-5,6.098796 -0.01345,1.661459 -0.02444,0.276375 -0.02443,-3.077962 z"
       id="path4542"
       inkscape:connector-curvature="0"
       transform="matrix(0.26458333,0,0,0.26458333,0,280.86039)" />
    <path
       style="stroke-width:0.08838835"
       d="M 0.01394563,30.532777 V 0.08299064 H 6.1127416 12.211538 V 12.280583 24.478175 h 12.28598 12.28598 V 12.280583 0.08299064 h 6.098796 6.098796 V 24.433981 48.78497 H 42.882294 36.783498 V 42.686174 36.587378 H 24.497518 12.211538 V 48.78497 60.982562 H 6.1127416 0.01394563 Z"
       id="path4544"
       inkscape:connector-curvature="0"
       transform="matrix(0.26458333,0,0,0.26458333,0,280.86039)" />
    <path
       style="stroke-width:0.08838835"
       d="m 12.253349,54.927961 c 9e-6,-3.354338 0.01101,-4.713713 0.02445,-3.020834 0.01344,1.69288 0.01343,4.437338 -1.6e-5,6.098796 -0.01345,1.661459 -0.02444,0.276375 -0.02443,-3.077962 z"
       id="path4546"
       inkscape:connector-curvature="0"
       transform="matrix(0.26458333,0,0,0.26458333,0,280.86039)" />
    <path
       style="stroke-width:0.08838835"
       d="M 0.01394563,30.532777 V 0.08299064 H 6.1127416 12.211538 V 12.280583 24.478175 h 12.28598 12.28598 V 12.280583 0.08299064 h 6.098796 6.098796 V 24.433981 48.78497 H 42.882294 36.783498 V 42.686174 36.587378 H 24.497518 12.211538 V 48.78497 60.982562 H 6.1127416 0.01394563 Z"
       id="path4548"
       inkscape:connector-curvature="0"
       transform="matrix(0.26458333,0,0,0.26458333,0,280.86039)" />
  </g>
</svg>
