<?xml version="1.0" encoding="UTF-8" standalone="no"?>
<svg xmlns="http://www.w3.org/2000/svg" xmlns:xlink="http://www.w3.org/1999/xlink" contentScriptType="application/ecmascript" contentStyleType="text/css" height="327px" preserveAspectRatio="none" style="width:977px;height:327px;" version="1.1" viewBox="0 0 977 327" width="977px" zoomAndPan="magnify"><defs><filter height="300%" id="fyhf54fjr76s8" width="300%" x="-1" y="-1"><feGaussianBlur result="blurOut" stdDeviation="2.0"/><feColorMatrix in="blurOut" result="blurOut2" type="matrix" values="0 0 0 0 0 0 0 0 0 0 0 0 0 0 0 0 0 0 .4 0"/><feOffset dx="4.0" dy="4.0" in="blurOut2" result="blurOut3"/><feBlend in="SourceGraphic" in2="blurOut3" mode="normal"/></filter></defs><g><!--class __node_array_settings--><rect fill="#F8F8F8" filter="url(#fyhf54fjr76s8)" height="32" id="__node_array_settings" style="stroke: #383838; stroke-width: 1.5;" width="169" x="119" y="192"/><ellipse cx="134" cy="208" fill="#C2C2C2" rx="11" ry="11" style="stroke: #383838; stroke-width: 1.0;"/><path d="M136.3438,203.6719 L136.5156,203.75 C136.7344,203.4375 136.9375,203.3438 137.2344,203.3438 C137.5313,203.3438 137.8125,203.4844 137.9688,203.75 C138.0625,203.9063 138.0781,204.0313 138.0781,204.4688 L138.0781,205.8906 C138.0781,206.3125 138.0469,206.5 137.9375,206.6563 C137.7656,206.875 137.5,207.0156 137.2344,207.0156 C137.0156,207.0156 136.7813,206.9063 136.6406,206.7656 C136.5,206.6406 136.4688,206.5156 136.4063,206.1094 C136.3125,205.7031 136.1406,205.4844 135.6563,205.2031 C135.1875,204.9531 134.5781,204.7969 134,204.7969 C132.2656,204.7969 131.0156,206.1094 131.0156,207.8906 L131.0156,208.9844 C131.0156,210.6875 132.3125,211.7813 134.3594,211.7813 C135.125,211.7813 135.8125,211.6563 136.2344,211.3906 C136.4219,211.2969 136.4219,211.2969 136.875,210.8125 C137.0625,210.625 137.2656,210.5469 137.4844,210.5469 C137.9531,210.5469 138.3438,210.9375 138.3438,211.3906 C138.3438,211.7813 138.0156,212.2344 137.4375,212.6406 C136.6875,213.1875 135.5313,213.4844 134.3125,213.4844 C131.4219,213.4844 129.3125,211.5938 129.3125,209.0156 L129.3125,207.8906 C129.3125,205.1719 131.3125,203.0938 133.9375,203.0938 C134.8125,203.0938 135.4063,203.2344 136.3438,203.6719 Z "/><text fill="#000000" font-family="sans-serif" font-size="12" lengthAdjust="spacingAndGlyphs" textLength="82" x="148" y="212.1543">__node_array</text><rect fill="#FFFFFF" height="15.9688" style="stroke: #000000; stroke-width: 1.0; stroke-dasharray: 2.0,2.0;" width="53" x="238" y="189"/><text fill="#000000" font-family="sans-serif" font-size="12" font-style="italic" lengthAdjust="spacingAndGlyphs" textLength="51" x="239" y="201.1387">Settings</text><!--class __node_object_settings--><rect fill="#F8F8F8" filter="url(#fyhf54fjr76s8)" height="32" id="__node_object_settings" style="stroke: #383838; stroke-width: 1.5;" width="176" x="675.5" y="192"/><ellipse cx="690.5" cy="208" fill="#C2C2C2" rx="11" ry="11" style="stroke: #383838; stroke-width: 1.0;"/><path d="M692.8438,203.6719 L693.0156,203.75 C693.2344,203.4375 693.4375,203.3438 693.7344,203.3438 C694.0313,203.3438 694.3125,203.4844 694.4688,203.75 C694.5625,203.9063 694.5781,204.0313 694.5781,204.4688 L694.5781,205.8906 C694.5781,206.3125 694.5469,206.5 694.4375,206.6563 C694.2656,206.875 694,207.0156 693.7344,207.0156 C693.5156,207.0156 693.2813,206.9063 693.1406,206.7656 C693,206.6406 692.9688,206.5156 692.9063,206.1094 C692.8125,205.7031 692.6406,205.4844 692.1563,205.2031 C691.6875,204.9531 691.0781,204.7969 690.5,204.7969 C688.7656,204.7969 687.5156,206.1094 687.5156,207.8906 L687.5156,208.9844 C687.5156,210.6875 688.8125,211.7813 690.8594,211.7813 C691.625,211.7813 692.3125,211.6563 692.7344,211.3906 C692.9219,211.2969 692.9219,211.2969 693.375,210.8125 C693.5625,210.625 693.7656,210.5469 693.9844,210.5469 C694.4531,210.5469 694.8438,210.9375 694.8438,211.3906 C694.8438,211.7813 694.5156,212.2344 693.9375,212.6406 C693.1875,213.1875 692.0313,213.4844 690.8125,213.4844 C687.9219,213.4844 685.8125,211.5938 685.8125,209.0156 L685.8125,207.8906 C685.8125,205.1719 687.8125,203.0938 690.4375,203.0938 C691.3125,203.0938 691.9063,203.2344 692.8438,203.6719 Z "/><text fill="#000000" font-family="sans-serif" font-size="12" lengthAdjust="spacingAndGlyphs" textLength="89" x="704.5" y="212.1543">__node_object</text><rect fill="#FFFFFF" height="15.9688" style="stroke: #000000; stroke-width: 1.0; stroke-dasharray: 2.0,2.0;" width="53" x="801.5" y="189"/><text fill="#000000" font-family="sans-serif" font-size="12" font-style="italic" lengthAdjust="spacingAndGlyphs" textLength="51" x="802.5" y="201.1387">Settings</text><!--class __node_settings--><rect fill="#F8F8F8" filter="url(#fyhf54fjr76s8)" height="32" id="__node_settings" style="stroke: #383838; stroke-width: 1.5;" width="317" x="323" y="192"/><ellipse cx="338" cy="208" fill="#C2C2C2" rx="11" ry="11" style="stroke: #383838; stroke-width: 1.0;"/><path d="M340.3438,203.6719 L340.5156,203.75 C340.7344,203.4375 340.9375,203.3438 341.2344,203.3438 C341.5313,203.3438 341.8125,203.4844 341.9688,203.75 C342.0625,203.9063 342.0781,204.0313 342.0781,204.4688 L342.0781,205.8906 C342.0781,206.3125 342.0469,206.5 341.9375,206.6563 C341.7656,206.875 341.5,207.0156 341.2344,207.0156 C341.0156,207.0156 340.7813,206.9063 340.6406,206.7656 C340.5,206.6406 340.4688,206.5156 340.4063,206.1094 C340.3125,205.7031 340.1406,205.4844 339.6563,205.2031 C339.1875,204.9531 338.5781,204.7969 338,204.7969 C336.2656,204.7969 335.0156,206.1094 335.0156,207.8906 L335.0156,208.9844 C335.0156,210.6875 336.3125,211.7813 338.3594,211.7813 C339.125,211.7813 339.8125,211.6563 340.2344,211.3906 C340.4219,211.2969 340.4219,211.2969 340.875,210.8125 C341.0625,210.625 341.2656,210.5469 341.4844,210.5469 C341.9531,210.5469 342.3438,210.9375 342.3438,211.3906 C342.3438,211.7813 342.0156,212.2344 341.4375,212.6406 C340.6875,213.1875 339.5313,213.4844 338.3125,213.4844 C335.4219,213.4844 333.3125,211.5938 333.3125,209.0156 L333.3125,207.8906 C333.3125,205.1719 335.3125,203.0938 337.9375,203.0938 C338.8125,203.0938 339.4063,203.2344 340.3438,203.6719 Z "/><text fill="#000000" font-family="sans-serif" font-size="12" lengthAdjust="spacingAndGlyphs" textLength="101" x="352" y="212.1543">__node_settings</text><rect fill="#FFFFFF" height="15.9688" style="stroke: #000000; stroke-width: 1.0; stroke-dasharray: 2.0,2.0;" width="182" x="461" y="189"/><text fill="#000000" font-family="sans-serif" font-size="12" font-style="italic" lengthAdjust="spacingAndGlyphs" textLength="180" x="462" y="201.1387">__node_object, __node_array</text><!--class map_type--><rect fill="#F8F8F8" filter="url(#fyhf54fjr76s8)" height="32" id="map_type" style="stroke: #383838; stroke-width: 1.5;" width="201" x="262" y="100"/><ellipse cx="277" cy="116" fill="#C2C2C2" rx="11" ry="11" style="stroke: #383838; stroke-width: 1.0;"/><path d="M279.3438,111.6719 L279.5156,111.75 C279.7344,111.4375 279.9375,111.3438 280.2344,111.3438 C280.5313,111.3438 280.8125,111.4844 280.9688,111.75 C281.0625,111.9063 281.0781,112.0313 281.0781,112.4688 L281.0781,113.8906 C281.0781,114.3125 281.0469,114.5 280.9375,114.6563 C280.7656,114.875 280.5,115.0156 280.2344,115.0156 C280.0156,115.0156 279.7813,114.9063 279.6406,114.7656 C279.5,114.6406 279.4688,114.5156 279.4063,114.1094 C279.3125,113.7031 279.1406,113.4844 278.6563,113.2031 C278.1875,112.9531 277.5781,112.7969 277,112.7969 C275.2656,112.7969 274.0156,114.1094 274.0156,115.8906 L274.0156,116.9844 C274.0156,118.6875 275.3125,119.7813 277.3594,119.7813 C278.125,119.7813 278.8125,119.6563 279.2344,119.3906 C279.4219,119.2969 279.4219,119.2969 279.875,118.8125 C280.0625,118.625 280.2656,118.5469 280.4844,118.5469 C280.9531,118.5469 281.3438,118.9375 281.3438,119.3906 C281.3438,119.7813 281.0156,120.2344 280.4375,120.6406 C279.6875,121.1875 278.5313,121.4844 277.3125,121.4844 C274.4219,121.4844 272.3125,119.5938 272.3125,117.0156 L272.3125,115.8906 C272.3125,113.1719 274.3125,111.0938 276.9375,111.0938 C277.8125,111.0938 278.4063,111.2344 279.3438,111.6719 Z "/><text fill="#000000" font-family="sans-serif" font-size="12" lengthAdjust="spacingAndGlyphs" textLength="169" x="291" y="120.1543">__node_settings::map_type</text><!--class array_type--><rect fill="#F8F8F8" filter="url(#fyhf54fjr76s8)" height="32" id="array_type" style="stroke: #383838; stroke-width: 1.5;" width="206" x="498.5" y="100"/><ellipse cx="513.5" cy="116" fill="#C2C2C2" rx="11" ry="11" style="stroke: #383838; stroke-width: 1.0;"/><path d="M515.8438,111.6719 L516.0156,111.75 C516.2344,111.4375 516.4375,111.3438 516.7344,111.3438 C517.0313,111.3438 517.3125,111.4844 517.4688,111.75 C517.5625,111.9063 517.5781,112.0313 517.5781,112.4688 L517.5781,113.8906 C517.5781,114.3125 517.5469,114.5 517.4375,114.6563 C517.2656,114.875 517,115.0156 516.7344,115.0156 C516.5156,115.0156 516.2813,114.9063 516.1406,114.7656 C516,114.6406 515.9688,114.5156 515.9063,114.1094 C515.8125,113.7031 515.6406,113.4844 515.1563,113.2031 C514.6875,112.9531 514.0781,112.7969 513.5,112.7969 C511.7656,112.7969 510.5156,114.1094 510.5156,115.8906 L510.5156,116.9844 C510.5156,118.6875 511.8125,119.7813 513.8594,119.7813 C514.625,119.7813 515.3125,119.6563 515.7344,119.3906 C515.9219,119.2969 515.9219,119.2969 516.375,118.8125 C516.5625,118.625 516.7656,118.5469 516.9844,118.5469 C517.4531,118.5469 517.8438,118.9375 517.8438,119.3906 C517.8438,119.7813 517.5156,120.2344 516.9375,120.6406 C516.1875,121.1875 515.0313,121.4844 513.8125,121.4844 C510.9219,121.4844 508.8125,119.5938 508.8125,117.0156 L508.8125,115.8906 C508.8125,113.1719 510.8125,111.0938 513.4375,111.0938 C514.3125,111.0938 514.9063,111.2344 515.8438,111.6719 Z "/><text fill="#000000" font-family="sans-serif" font-size="12" lengthAdjust="spacingAndGlyphs" textLength="174" x="527.5" y="120.1543">__node_settings::array_type</text><!--class __node_settings_t--><rect fill="#F8F8F8" filter="url(#fyhf54fjr76s8)" height="32" id="__node_settings_t" style="stroke: #383838; stroke-width: 1.5;" width="632" x="165.5" y="284"/><ellipse cx="180.5" cy="300" fill="#C2C2C2" rx="11" ry="11" style="stroke: #383838; stroke-width: 1.0;"/><path d="M182.8438,295.6719 L183.0156,295.75 C183.2344,295.4375 183.4375,295.3438 183.7344,295.3438 C184.0313,295.3438 184.3125,295.4844 184.4688,295.75 C184.5625,295.9063 184.5781,296.0313 184.5781,296.4688 L184.5781,297.8906 C184.5781,298.3125 184.5469,298.5 184.4375,298.6563 C184.2656,298.875 184,299.0156 183.7344,299.0156 C183.5156,299.0156 183.2813,298.9063 183.1406,298.7656 C183,298.6406 182.9688,298.5156 182.9063,298.1094 C182.8125,297.7031 182.6406,297.4844 182.1563,297.2031 C181.6875,296.9531 181.0781,296.7969 180.5,296.7969 C178.7656,296.7969 177.5156,298.1094 177.5156,299.8906 L177.5156,300.9844 C177.5156,302.6875 178.8125,303.7813 180.8594,303.7813 C181.625,303.7813 182.3125,303.6563 182.7344,303.3906 C182.9219,303.2969 182.9219,303.2969 183.375,302.8125 C183.5625,302.625 183.7656,302.5469 183.9844,302.5469 C184.4531,302.5469 184.8438,302.9375 184.8438,303.3906 C184.8438,303.7813 184.5156,304.2344 183.9375,304.6406 C183.1875,305.1875 182.0313,305.4844 180.8125,305.4844 C177.9219,305.4844 175.8125,303.5938 175.8125,301.0156 L175.8125,299.8906 C175.8125,297.1719 177.8125,295.0938 180.4375,295.0938 C181.3125,295.0938 181.9063,295.2344 182.8438,295.6719 Z "/><text fill="#000000" font-family="sans-serif" font-size="12" lengthAdjust="spacingAndGlyphs" textLength="101" x="194.5" y="304.1543">__node_settings</text><rect fill="#FFFFFF" height="15.9688" style="stroke: #000000; stroke-width: 1.0; stroke-dasharray: 2.0,2.0;" width="497" x="303.5" y="281"/><text fill="#000000" font-family="sans-serif" font-size="12" font-style="italic" lengthAdjust="spacingAndGlyphs" textLength="495" x="304.5" y="293.1387">template &lt;typename&gt; typename Map, template &lt;typename&gt; typename Array</text><!--class node_array_--><rect fill="#F8F8F8" filter="url(#fyhf54fjr76s8)" height="32" id="node_array_" style="stroke: #383838; stroke-width: 1.5;" width="405" x="6" y="8"/><ellipse cx="21" cy="24" fill="#C2C2C2" rx="11" ry="11" style="stroke: #383838; stroke-width: 1.0;"/><path d="M23.3438,19.6719 L23.5156,19.75 C23.7344,19.4375 23.9375,19.3438 24.2344,19.3438 C24.5313,19.3438 24.8125,19.4844 24.9688,19.75 C25.0625,19.9063 25.0781,20.0313 25.0781,20.4688 L25.0781,21.8906 C25.0781,22.3125 25.0469,22.5 24.9375,22.6563 C24.7656,22.875 24.5,23.0156 24.2344,23.0156 C24.0156,23.0156 23.7813,22.9063 23.6406,22.7656 C23.5,22.6406 23.4688,22.5156 23.4063,22.1094 C23.3125,21.7031 23.1406,21.4844 22.6563,21.2031 C22.1875,20.9531 21.5781,20.7969 21,20.7969 C19.2656,20.7969 18.0156,22.1094 18.0156,23.8906 L18.0156,24.9844 C18.0156,26.6875 19.3125,27.7813 21.3594,27.7813 C22.125,27.7813 22.8125,27.6563 23.2344,27.3906 C23.4219,27.2969 23.4219,27.2969 23.875,26.8125 C24.0625,26.625 24.2656,26.5469 24.4844,26.5469 C24.9531,26.5469 25.3438,26.9375 25.3438,27.3906 C25.3438,27.7813 25.0156,28.2344 24.4375,28.6406 C23.6875,29.1875 22.5313,29.4844 21.3125,29.4844 C18.4219,29.4844 16.3125,27.5938 16.3125,25.0156 L16.3125,23.8906 C16.3125,21.1719 18.3125,19.0938 20.9375,19.0938 C21.8125,19.0938 22.4063,19.2344 23.3438,19.6719 Z "/><text fill="#000000" font-family="sans-serif" font-size="12" lengthAdjust="spacingAndGlyphs" textLength="70" x="35" y="28.1543">node_array</text><rect fill="#FFFFFF" height="15.9688" style="stroke: #000000; stroke-width: 1.0; stroke-dasharray: 2.0,2.0;" width="301" x="113" y="5"/><text fill="#000000" font-family="sans-serif" font-size="12" font-style="italic" lengthAdjust="spacingAndGlyphs" textLength="299" x="114" y="17.1387">__node_settings&lt;__node_object, __node_array&gt;</text><!--class node_object_--><rect fill="#F8F8F8" filter="url(#fyhf54fjr76s8)" height="32" id="node_object_" style="stroke: #383838; stroke-width: 1.5;" width="412" x="551.5" y="8"/><ellipse cx="566.5" cy="24" fill="#C2C2C2" rx="11" ry="11" style="stroke: #383838; stroke-width: 1.0;"/><path d="M568.8438,19.6719 L569.0156,19.75 C569.2344,19.4375 569.4375,19.3438 569.7344,19.3438 C570.0313,19.3438 570.3125,19.4844 570.4688,19.75 C570.5625,19.9063 570.5781,20.0313 570.5781,20.4688 L570.5781,21.8906 C570.5781,22.3125 570.5469,22.5 570.4375,22.6563 C570.2656,22.875 570,23.0156 569.7344,23.0156 C569.5156,23.0156 569.2813,22.9063 569.1406,22.7656 C569,22.6406 568.9688,22.5156 568.9063,22.1094 C568.8125,21.7031 568.6406,21.4844 568.1563,21.2031 C567.6875,20.9531 567.0781,20.7969 566.5,20.7969 C564.7656,20.7969 563.5156,22.1094 563.5156,23.8906 L563.5156,24.9844 C563.5156,26.6875 564.8125,27.7813 566.8594,27.7813 C567.625,27.7813 568.3125,27.6563 568.7344,27.3906 C568.9219,27.2969 568.9219,27.2969 569.375,26.8125 C569.5625,26.625 569.7656,26.5469 569.9844,26.5469 C570.4531,26.5469 570.8438,26.9375 570.8438,27.3906 C570.8438,27.7813 570.5156,28.2344 569.9375,28.6406 C569.1875,29.1875 568.0313,29.4844 566.8125,29.4844 C563.9219,29.4844 561.8125,27.5938 561.8125,25.0156 L561.8125,23.8906 C561.8125,21.1719 563.8125,19.0938 566.4375,19.0938 C567.3125,19.0938 567.9063,19.2344 568.8438,19.6719 Z "/><text fill="#000000" font-family="sans-serif" font-size="12" lengthAdjust="spacingAndGlyphs" textLength="77" x="580.5" y="28.1543">node_object</text><rect fill="#FFFFFF" height="15.9688" style="stroke: #000000; stroke-width: 1.0; stroke-dasharray: 2.0,2.0;" width="301" x="665.5" y="5"/><text fill="#000000" font-family="sans-serif" font-size="12" font-style="italic" lengthAdjust="spacingAndGlyphs" textLength="299" x="666.5" y="17.1387">__node_settings&lt;__node_object, __node_array&gt;</text><!--link __node_settings to __node_settings_t--><path d="M481.5,244.6147 C481.5,258.3102 481.5,273.2196 481.5,283.9582 " fill="none" id="__node_settings-__node_settings_t" style="stroke: #383838; stroke-width: 1.0;"/><polygon fill="none" points="474.5,244.2673,481.5,224.2673,488.5,244.2672,474.5,244.2673" style="stroke: #383838; stroke-width: 1.0;"/><!--link map_type to __node_settings--><path d="M386.41,135.083 C408.457,151.758 440.813,176.228 461.517,191.887 " fill="none" id="map_type-__node_settings" style="stroke: #383838; stroke-width: 1.0;"/><polygon fill="#383838" points="382.418,132.064,387.1845,140.6826,386.4063,135.0795,392.0094,134.3013,382.418,132.064" style="stroke: #383838; stroke-width: 1.0;"/><!--link array_type to __node_settings--><path d="M577.389,135.083 C555.156,151.758 522.529,176.228 501.651,191.887 " fill="none" id="array_type-__node_settings" style="stroke: #383838; stroke-width: 1.0;"/><polygon fill="#383838" points="581.415,132.064,571.815,134.264,577.415,135.064,576.615,140.664,581.415,132.064" style="stroke: #383838; stroke-width: 1.0;"/><!--link node_array_ to __node_settings--><path d="M208.092,45.237 C208.678,74.197 214.305,127.145 245.5,156 C265.464,174.466 278.89,162.391 305.5,168 C341.789,175.649 382.194,184.573 415.128,191.953 " fill="none" id="node_array_-__node_settings" style="stroke: #383838; stroke-width: 1.0;"/><polygon fill="#383838" points="208.036,40.119,204.1339,49.1619,208.0903,45.1187,212.1335,49.075,208.036,40.119" style="stroke: #383838; stroke-width: 1.0;"/><!--link node_array_ to __node_array_settings--><path d="M188.8,58.188 C186.197,63.952 183.936,70.021 182.5,76 C174.196,110.572 175.6,121.12 182.5,156 C184.99,168.587 190.627,181.97 195.434,191.868 " fill="none" id="node_array_-__node_array_settings" style="stroke: #383838; stroke-width: 1.0;"/><polygon fill="none" points="182.715,54.72,198.266,40.327,195.085,61.276,182.715,54.72" style="stroke: #383838; stroke-width: 1.0;"/><!--link node_array_ to map_type--><path d="M238.734,42.669 C267.278,59.351 309.624,84.098 336.64,99.887 " fill="none" id="node_array_-map_type" style="stroke: #383838; stroke-width: 1.0;"/><polygon fill="#383838" points="234.276,40.064,240.0283,48.0585,238.5929,42.5867,244.0646,41.1514,234.276,40.064" style="stroke: #383838; stroke-width: 1.0;"/><!--link node_object_ to __node_settings--><path d="M757.943,45.275 C757.4,74.283 751.827,127.288 720.5,156 C699.487,175.259 685.417,162.249 657.5,168 C620.869,175.545 580.087,184.545 547.01,191.996 " fill="none" id="node_object_-__node_settings" style="stroke: #383838; stroke-width: 1.0;"/><polygon fill="#383838" points="757.991,40.149,753.9063,49.1109,757.9439,45.1488,761.906,49.1863,757.991,40.149" style="stroke: #383838; stroke-width: 1.0;"/><!--link node_object_ to __node_object_settings--><path d="M777.2,58.188 C779.803,63.952 782.064,70.021 783.5,76 C791.804,110.572 790.105,121.063 783.5,156 C781.132,168.522 775.764,181.909 771.184,191.824 " fill="none" id="node_object_-__node_object_settings" style="stroke: #383838; stroke-width: 1.0;"/><polygon fill="none" points="770.915,61.276,767.734,40.327,783.285,54.72,770.915,61.276" style="stroke: #383838; stroke-width: 1.0;"/><!--link node_object_ to array_type--><path d="M726.873,42.669 C697.958,59.351 655.063,84.098 627.696,99.887 " fill="none" id="node_object_-array_type" style="stroke: #383838; stroke-width: 1.0;"/><polygon fill="#383838" points="731.389,40.064,721.5945,41.0976,727.0583,42.563,725.5929,48.0267,731.389,40.064" style="stroke: #383838; stroke-width: 1.0;"/><!--
@startuml
skinparam monochrome true

hide empty members

class "__node_settings<template <typename> typename Map, template <typename> typename Array>" as __node_settings_t

together {
class "__node_array<Settings>" as __node_array_settings
class "__node_object<Settings>" as __node_object_settings
class "__node_settings<~__node_object, ~__node_array>" as __node_settings
}

__node_settings_t -up-|> __node_settings

class "node_array<__node_settings<~__node_object, ~__node_array>>" as node_array_
class "node_object<__node_settings<~__node_object, ~__node_array>>" as node_object_

together {
class "__node_settings::map_type" as map_type
class "__node_settings::array_type" as array_type
}

map_type <- - __node_settings
array_type <- - __node_settings

node_array_ <- - __node_settings
node_array_ <|-down- __node_array_settings
node_array_ <- - map_type
node_object_ <- - __node_settings
node_object_ <|-down- __node_object_settings
node_object_ <- - array_type
@enduml

PlantUML version 1.2019.07beta1(Unknown compile time)
(GPL source distribution)
Java Runtime: Java(TM) SE Runtime Environment
JVM: Java HotSpot(TM) 64-Bit Server VM
Java Version: 1.7.0_25-b15
Operating System: Linux
Default Encoding: UTF-8
Language: en
Country: US
--></g></svg>